Coordinates
version=1
nRows=12
nColumns=24
inDegrees=yes

Units are S.I. units (second, meters, Newtons, ...)
Angles are in degrees.

endheader
time	pelvis_tilt	pelvis_list	pelvis_rotation	pelvis_tx	pelvis_ty	pelvis_tz	hip_flexion_r	hip_adduction_r	hip_rotation_r	knee_angle_r	ankle_angle_r	subtalar_angle_r	mtp_angle_r	hip_flexion_l	hip_adduction_l	hip_rotation_l	knee_angle_l	ankle_angle_l	subtalar_angle_l	mtp_angle_l	lumbar_extension	lumbar_bending	lumbar_rotation
      0.83733333	     -2.16967918	     -2.33596826	      0.22352491	     -0.18851334	      1.04253044	      0.29877358	     -9.34322241	      5.03534946	     -1.21055795	    -11.23903680	     20.89576995	      0.25389307	      3.09367861	     27.32480885	     -3.06941893	      0.30836344	     -5.65636932	      5.47674300	      7.74949040	      3.69642251	    -12.30487593	      5.35857406	      3.65405535
      0.84150000	     -2.15906074	     -2.28346518	      0.20316869	     -0.18269777	      1.04164123	      0.29839258	     -9.49898481	      4.94068003	     -1.28712382	    -11.68250880	     21.11543472	      0.41560251	      3.07469022	     27.40523150	     -2.91748960	      0.54900495	     -6.16052408	      5.34703045	      7.60268950	      3.73238996	    -12.25519965	      5.23441891	      3.62662762
      0.84566667	     -2.14106123	     -2.21217235	      0.17469964	     -0.17685584	      1.04081782	      0.29801755	     -9.65086863	      4.82197890	     -1.36555006	    -12.15158624	     21.31593557	      0.59380501	      3.06462392	     27.47295038	     -2.75020333	      0.78161747	     -6.71520980	      5.17660644	      7.42672009	      3.77818762	    -12.21053243	      5.08566673	      3.59924104
      0.84983333	     -2.11447957	     -2.14933729	      0.14783604	     -0.17099769	      1.04005659	      0.29765598	     -9.82811414	      4.72198395	     -1.34055682	    -12.58228500	     21.37757120	      0.56764452	      3.06567228	     27.55656028	     -2.59718636	      0.94641620	     -7.37055515	      5.00201081	      7.34489149	      3.78764365	    -12.19539012	      4.95958906	      3.58789410
      0.85400000	     -2.14069639	     -2.06932100	      0.10912931	     -0.16509899	      1.03924423	      0.29725240	     -9.88433215	      4.57845337	     -1.50187617	    -13.16032945	     21.60012167	      0.91270925	      3.08825833	     27.66977977	     -2.42071769	      1.22364788	     -8.01891197	      4.75134469	      7.03437222	      3.85980430	    -12.06614858	      4.78890032	      3.56524115
      0.85816667	     -2.14258546	     -1.97640240	      0.06464020	     -0.15918246	      1.03853567	      0.29688959	     -9.97886394	      4.43055679	     -1.54491587	    -13.71077576	     21.72114404	      1.04468254	      3.11866222	     27.76301864	     -2.24142109	      1.44555832	     -8.72358811	      4.51683858	      6.82540144	      3.91818880	    -11.99676572	      4.59119392	      3.54428565
      0.86233333	     -2.16780440	     -1.89274095	      0.02333243	     -0.15324006	      1.03782956	      0.29649605	    -10.03503149	      4.28837438	     -1.60587703	    -14.28740694	     21.78463468	      1.19826936	      3.16575970	     27.89572427	     -2.07019161	      1.65599418	     -9.49021985	      4.25499430	      6.58894820	      3.97636054	    -11.89052395	      4.42160198	      3.53471680
      0.86650000	     -2.17677764	     -1.80598071	     -0.02028914	     -0.14727868	      1.03721209	      0.29608457	    -10.09380704	      4.13589997	     -1.68650697	    -14.89298135	     21.81971782	      1.39248618	      3.24893581	     28.01012533	     -1.89816573	      1.85784036	    -10.28571567	      3.97186840	      6.31245404	      4.04798418	    -11.79387663	      4.25213452	      3.53061788
      0.87066667	     -2.20694427	     -1.72070786	     -0.07846814	     -0.14130392	      1.03660458	      0.29570161	    -10.10426211	      3.98316728	     -1.73852701	    -15.55364199	     21.81361117	      1.50041453	      3.32466395	     28.14808411	     -1.73892706	      2.03437829	    -11.10950441	      3.71932235	      6.08204382	      4.09264429	    -11.66981863	      4.06049271	      3.52115101
      0.87483333	     -2.23641263	     -1.61859406	     -0.13370072	     -0.13529565	      1.03607062	      0.29527553	    -10.10557255	      3.80333618	     -1.81130439	    -16.23175557	     21.78050787	      1.72178101	      3.44189008	     28.27967209	     -1.56026492	      2.21875299	    -11.94677005	      3.43399449	      5.79251195	      4.13992262	    -11.56068240	      3.86123651	      3.52451299
      0.87900000	     -2.26358380	     -1.52665231	     -0.19255614	     -0.12927304	      1.03558586	      0.29483809	    -10.08681679	      3.62837914	     -1.89583460	    -16.95350967	     21.70085122	      1.92307159	      3.58863172	     28.41158870	     -1.39694001	      2.38242930	    -12.80752822	      3.17294498	      5.51220531	      4.18065699	    -11.44049134	      3.67390918	      3.52782733
      0.88316667	     -2.29237094	     -1.43050410	     -0.25581382	     -0.12323901	      1.03516088	      0.29439716	    -10.04410955	      3.44336248	     -1.98209962	    -17.71775087	     21.56838220	      2.12643978	      3.75558927	     28.54163689	     -1.23517830	      2.52248313	    -13.67511079	      2.93044836	      5.23759520	      4.20958190	    -11.31885073	      3.47949261	      3.53499076
